<svg width="1206" height="350" viewBox="0 0 1206 350" fill="none" xmlns="http://www.w3.org/2000/svg">
<path d="M224.706 235.631L208 261L249.006 231.065L289 131.112L328.994 231.065L370 261L353.294 235.631L289 89L224.706 235.631Z" fill="url(#paint0_linear_10_2)"/>
<path d="M276.118 196.998C276.078 196.999 276.038 197 276 197C276.038 196.999 276.078 196.998 276.118 196.998C279.369 196.908 289.5 193.1 289.5 169C289.5 193.4 299.885 197 303 197C299.885 197 289.5 200.6 289.5 225C289.5 200.9 279.369 197.001 276.118 196.998Z" fill="url(#paint1_linear_10_2)"/>
<path d="M461.8 211V143.8H483.496C491.048 143.8 496.968 145.56 501.256 149.08C505.608 152.536 507.784 157.56 507.784 164.152C507.784 169.464 506.344 173.752 503.464 177.016C500.648 180.28 496.712 182.456 491.656 183.544L510.472 211H494.632L480.328 189.688C479.432 188.344 478.568 186.712 477.736 184.792H475.24V211H461.8ZM475.24 172.696H482.728C486.376 172.696 489.192 171.992 491.176 170.584C493.16 169.112 494.152 167 494.152 164.248C494.152 161.56 493.16 159.512 491.176 158.104C489.192 156.632 486.376 155.896 482.728 155.896H475.24V172.696ZM635.635 211V143.8H649.075V211H635.635ZM801.545 212.248C796.233 212.248 791.337 211.128 786.857 208.888C782.441 206.584 778.761 202.872 775.817 197.752L787.433 190.36C789.161 193.816 791.337 196.344 793.961 197.944C796.585 199.48 799.369 200.248 802.313 200.248C805.449 200.248 807.913 199.544 809.705 198.136C811.497 196.728 812.393 194.872 812.393 192.568C812.393 190.328 811.689 188.536 810.281 187.192C808.873 185.848 806.985 184.76 804.617 183.928C802.313 183.096 799.785 182.328 797.033 181.624C791.849 180.28 787.721 178.072 784.649 175C781.577 171.864 780.041 167.768 780.041 162.712C780.041 158.68 781.033 155.16 783.017 152.152C785.001 149.144 787.753 146.808 791.273 145.144C794.857 143.48 799.017 142.648 803.753 142.648C809.001 142.648 813.385 143.736 816.905 145.912C820.425 148.088 823.433 151.16 825.929 155.128L814.409 162.232C812.809 159.608 811.145 157.688 809.417 156.472C807.689 155.256 805.577 154.648 803.081 154.648C800.393 154.648 798.153 155.32 796.361 156.664C794.633 158.008 793.769 159.8 793.769 162.04C793.769 164.536 794.793 166.36 796.841 167.512C798.953 168.6 801.481 169.592 804.425 170.488C806.409 171.128 808.617 171.896 811.049 172.792C813.545 173.624 815.945 174.808 818.249 176.344C820.553 177.816 822.441 179.8 823.913 182.296C825.385 184.792 826.121 187.96 826.121 191.8C826.121 195.832 825.129 199.384 823.145 202.456C821.161 205.528 818.345 207.928 814.697 209.656C811.049 211.384 806.665 212.248 801.545 212.248ZM953.961 211V143.8H993.321V155.896H967.401V170.968H992.841V182.68H967.401V198.904H993.513V211H953.961Z" fill="url(#paint2_linear_10_2)"/>
<g filter="url(#filter0_d_10_2)">
<path d="M98 264V89H118.447V109.134H110.287V243.866H118.447V264H98Z" fill="url(#paint3_linear_10_2)"/>
<path d="M1107 264H1086.55V243.866H1094.71V109.134H1086.55V89H1107V264Z" fill="url(#paint4_linear_10_2)"/>
</g>
<defs>
<filter id="filter0_d_10_2" x="27.9" y="18.9" width="1149.2" height="315.2" filterUnits="userSpaceOnUse" color-interpolation-filters="sRGB">
<feFlood flood-opacity="0" result="BackgroundImageFix"/>
<feColorMatrix in="SourceAlpha" type="matrix" values="0 0 0 0 0 0 0 0 0 0 0 0 0 0 0 0 0 0 127 0" result="hardAlpha"/>
<feOffset/>
<feGaussianBlur stdDeviation="35.05"/>
<feComposite in2="hardAlpha" operator="out"/>
<feColorMatrix type="matrix" values="0 0 0 0 0.426231 0 0 0 0 0.23137 0 0 0 0 0.875 0 0 0 1 0"/>
<feBlend mode="normal" in2="BackgroundImageFix" result="effect1_dropShadow_10_2"/>
<feBlend mode="normal" in="SourceGraphic" in2="effect1_dropShadow_10_2" result="shape"/>
</filter>
<linearGradient id="paint0_linear_10_2" x1="289" y1="89" x2="289" y2="261" gradientUnits="userSpaceOnUse">
<stop stop-color="white"/>
<stop offset="1" stop-color="#676767"/>
</linearGradient>
<linearGradient id="paint1_linear_10_2" x1="276" y1="169" x2="301.364" y2="225.731" gradientUnits="userSpaceOnUse">
<stop offset="0.235828" stop-color="#DFD4F8"/>
<stop offset="0.667401" stop-color="#6B32ED"/>
</linearGradient>
<linearGradient id="paint2_linear_10_2" x1="728" y1="115" x2="728" y2="240" gradientUnits="userSpaceOnUse">
<stop stop-color="white"/>
<stop offset="1" stop-color="#676767"/>
</linearGradient>
<linearGradient id="paint3_linear_10_2" x1="1098.13" y1="38.1936" x2="1098.13" y2="283.209" gradientUnits="userSpaceOnUse">
<stop stop-color="#1E0063"/>
<stop offset="1" stop-color="#9881DD"/>
</linearGradient>
<linearGradient id="paint4_linear_10_2" x1="1098.13" y1="38.1936" x2="1098.13" y2="283.209" gradientUnits="userSpaceOnUse">
<stop stop-color="#1E0063"/>
<stop offset="1" stop-color="#9881DD"/>
</linearGradient>
</defs>
</svg>
